<svg xmlns="http://www.w3.org/2000/svg" viewBox="0 0 32 32"><rect width="32" height="32" rx="7" fill="#17181c"/><circle cx="16" cy="16" r="10.6" fill="none" stroke="#dfe2e6" stroke-width="1.4"/><line x1="17.288" y1="9.527" x2="17.892" y2="6.486" stroke="#dfe2e6" stroke-width="1.15" stroke-linecap="round"/><line x1="19.667" y1="10.512" x2="21.389" y2="7.935" stroke="#dfe2e6" stroke-width="1.15" stroke-linecap="round"/><line x1="21.488" y1="12.333" x2="24.065" y2="10.611" stroke="#dfe2e6" stroke-width="1.15" stroke-linecap="round"/><line x1="22.473" y1="14.712" x2="25.514" y2="14.108" stroke="#dfe2e6" stroke-width="1.15" stroke-linecap="round"/><line x1="22.473" y1="17.288" x2="25.514" y2="17.892" stroke="#dfe2e6" stroke-width="1.15" stroke-linecap="round"/><line x1="21.488" y1="19.667" x2="24.065" y2="21.389" stroke="#dfe2e6" stroke-width="1.15" stroke-linecap="round"/><line x1="19.667" y1="21.488" x2="21.389" y2="24.065" stroke="#dfe2e6" stroke-width="1.15" stroke-linecap="round"/><line x1="17.288" y1="22.473" x2="17.892" y2="25.514" stroke="#dfe2e6" stroke-width="1.15" stroke-linecap="round"/><line x1="14.712" y1="22.473" x2="14.108" y2="25.514" stroke="#dfe2e6" stroke-width="1.15" stroke-linecap="round"/><line x1="12.333" y1="21.488" x2="10.611" y2="24.065" stroke="#dfe2e6" stroke-width="1.15" stroke-linecap="round"/><line x1="10.512" y1="19.667" x2="7.935" y2="21.389" stroke="#dfe2e6" stroke-width="1.15" stroke-linecap="round"/><line x1="9.527" y1="17.288" x2="6.486" y2="17.892" stroke="#dfe2e6" stroke-width="1.15" stroke-linecap="round"/><line x1="9.527" y1="14.712" x2="6.486" y2="14.108" stroke="#dfe2e6" stroke-width="1.15" stroke-linecap="round"/><line x1="10.512" y1="12.333" x2="7.935" y2="10.611" stroke="#dfe2e6" stroke-width="1.15" stroke-linecap="round"/><line x1="12.333" y1="10.512" x2="10.611" y2="7.935" stroke="#dfe2e6" stroke-width="1.15" stroke-linecap="round"/><line x1="14.712" y1="9.527" x2="14.108" y2="6.486" stroke="#dfe2e6" stroke-width="1.15" stroke-linecap="round"/><circle cx="16" cy="16" r="5.4" fill="none" stroke="#dfe2e6" stroke-width="1.2"/><circle cx="16" cy="16" r="2.7" fill="#dfe2e6"/></svg>